<?xml version="1.0" encoding="utf-8"?>
<!DOCTYPE svg
  PUBLIC '-//W3C//DTD SVG 1.0//EN'
  'http://www.w3.org/TR/2001/REC-SVG-20010904/DTD/svg10.dtd'>
<svg width="480" height="290" preserveAspectRatio="xMinYMin meet" viewBox="0 0 480 290" xmlns="http://www.w3.org/2000/svg" version="1.0" fill-rule="evenodd" xmlns:xlink="http://www.w3.org/1999/xlink">
	<title>...</title>
	<desc>...</desc>
	<clipPath id="clip">
		<rect x="0" y="0" width="480" height="290"/>
	</clipPath>
	<g id="group" transform="scale(1,-1) translate(0,-290)" style="clip-path: url(#clip)">
		<g transform="">
			<text x="8" y="260" style="font-family: Helvetica; font-size: 15px;fill: rgb(8%,21%,29%); stroke:none;" transform="translate(0,520) scale(1,-1)">Mapa de Karnaugh: v</text>
			<text x="40" y="226" style="font-family: Helvetica; font-size: 10px;fill: rgb(8%,21%,29%); stroke:none;" transform="translate(0,452) scale(1,-1)">ab / cd</text>
			<text x="127" y="239" style="font-family: Helvetica; font-size: 11px;fill: rgb(8%,21%,29%); stroke:none;" transform="translate(0,478) scale(1,-1)">00</text>
			<text x="197" y="239" style="font-family: Helvetica; font-size: 11px;fill: rgb(8%,21%,29%); stroke:none;" transform="translate(0,478) scale(1,-1)">01</text>
			<text x="267" y="239" style="font-family: Helvetica; font-size: 11px;fill: rgb(8%,21%,29%); stroke:none;" transform="translate(0,478) scale(1,-1)">11</text>
			<text x="337" y="239" style="font-family: Helvetica; font-size: 11px;fill: rgb(8%,21%,29%); stroke:none;" transform="translate(0,478) scale(1,-1)">10</text>
			<text x="65" y="203" style="font-family: Helvetica; font-size: 11px;fill: rgb(8%,21%,29%); stroke:none;" transform="translate(0,406) scale(1,-1)">00</text>
			<rect x="100" y="187" width="70" height="43" style="stroke: rgb(73%,79%,81%); stroke-linecap: butt; stroke-width: 1; fill: rgb(100%,100%,100%); fill-rule: evenodd;"/>
			<text x="105" y="220" style="font-family: Helvetica; font-size: 7px;fill: rgb(50%,50%,50%); stroke:none;" transform="translate(0,440) scale(1,-1)">0</text>
			<text x="133" y="201" style="font-family: Helvetica; font-size: 14px;fill: rgb(8%,21%,29%); stroke:none;" transform="translate(0,402) scale(1,-1)">0</text>
			<rect x="170" y="187" width="70" height="43" style="stroke: rgb(73%,79%,81%); stroke-linecap: butt; stroke-width: 1; fill: rgb(100%,100%,100%); fill-rule: evenodd;"/>
			<text x="175" y="220" style="font-family: Helvetica; font-size: 7px;fill: rgb(50%,50%,50%); stroke:none;" transform="translate(0,440) scale(1,-1)">1</text>
			<text x="203" y="201" style="font-family: Helvetica; font-size: 14px;fill: rgb(8%,21%,29%); stroke:none;" transform="translate(0,402) scale(1,-1)">1</text>
			<rect x="240" y="187" width="70" height="43" style="stroke: rgb(73%,79%,81%); stroke-linecap: butt; stroke-width: 1; fill: rgb(100%,100%,100%); fill-rule: evenodd;"/>
			<text x="245" y="220" style="font-family: Helvetica; font-size: 7px;fill: rgb(50%,50%,50%); stroke:none;" transform="translate(0,440) scale(1,-1)">3</text>
			<text x="273" y="201" style="font-family: Helvetica; font-size: 14px;fill: rgb(8%,21%,29%); stroke:none;" transform="translate(0,402) scale(1,-1)">1</text>
			<rect x="310" y="187" width="70" height="43" style="stroke: rgb(73%,79%,81%); stroke-linecap: butt; stroke-width: 1; fill: rgb(100%,100%,100%); fill-rule: evenodd;"/>
			<text x="315" y="220" style="font-family: Helvetica; font-size: 7px;fill: rgb(50%,50%,50%); stroke:none;" transform="translate(0,440) scale(1,-1)">2</text>
			<text x="343" y="201" style="font-family: Helvetica; font-size: 14px;fill: rgb(8%,21%,29%); stroke:none;" transform="translate(0,402) scale(1,-1)">0</text>
			<text x="65" y="160" style="font-family: Helvetica; font-size: 11px;fill: rgb(8%,21%,29%); stroke:none;" transform="translate(0,320) scale(1,-1)">01</text>
			<rect x="100" y="144" width="70" height="43" style="stroke: rgb(73%,79%,81%); stroke-linecap: butt; stroke-width: 1; fill: rgb(100%,100%,100%); fill-rule: evenodd;"/>
			<text x="105" y="177" style="font-family: Helvetica; font-size: 7px;fill: rgb(50%,50%,50%); stroke:none;" transform="translate(0,354) scale(1,-1)">4</text>
			<text x="133" y="158" style="font-family: Helvetica; font-size: 14px;fill: rgb(8%,21%,29%); stroke:none;" transform="translate(0,316) scale(1,-1)">1</text>
			<rect x="170" y="144" width="70" height="43" style="stroke: rgb(73%,79%,81%); stroke-linecap: butt; stroke-width: 1; fill: rgb(100%,100%,100%); fill-rule: evenodd;"/>
			<text x="175" y="177" style="font-family: Helvetica; font-size: 7px;fill: rgb(50%,50%,50%); stroke:none;" transform="translate(0,354) scale(1,-1)">5</text>
			<text x="203" y="158" style="font-family: Helvetica; font-size: 14px;fill: rgb(8%,21%,29%); stroke:none;" transform="translate(0,316) scale(1,-1)">1</text>
			<rect x="240" y="144" width="70" height="43" style="stroke: rgb(73%,79%,81%); stroke-linecap: butt; stroke-width: 1; fill: rgb(100%,100%,100%); fill-rule: evenodd;"/>
			<text x="245" y="177" style="font-family: Helvetica; font-size: 7px;fill: rgb(50%,50%,50%); stroke:none;" transform="translate(0,354) scale(1,-1)">7</text>
			<text x="273" y="158" style="font-family: Helvetica; font-size: 14px;fill: rgb(8%,21%,29%); stroke:none;" transform="translate(0,316) scale(1,-1)">1</text>
			<rect x="310" y="144" width="70" height="43" style="stroke: rgb(73%,79%,81%); stroke-linecap: butt; stroke-width: 1; fill: rgb(100%,100%,100%); fill-rule: evenodd;"/>
			<text x="315" y="177" style="font-family: Helvetica; font-size: 7px;fill: rgb(50%,50%,50%); stroke:none;" transform="translate(0,354) scale(1,-1)">6</text>
			<text x="343" y="158" style="font-family: Helvetica; font-size: 14px;fill: rgb(8%,21%,29%); stroke:none;" transform="translate(0,316) scale(1,-1)">0</text>
			<text x="65" y="117" style="font-family: Helvetica; font-size: 11px;fill: rgb(8%,21%,29%); stroke:none;" transform="translate(0,234) scale(1,-1)">11</text>
			<rect x="100" y="101" width="70" height="43" style="stroke: rgb(73%,79%,81%); stroke-linecap: butt; stroke-width: 1; fill: rgb(100%,100%,100%); fill-rule: evenodd;"/>
			<text x="105" y="134" style="font-family: Helvetica; font-size: 7px;fill: rgb(50%,50%,50%); stroke:none;" transform="translate(0,268) scale(1,-1)">12</text>
			<text x="133" y="115" style="font-family: Helvetica; font-size: 14px;fill: rgb(8%,21%,29%); stroke:none;" transform="translate(0,230) scale(1,-1)">1</text>
			<rect x="170" y="101" width="70" height="43" style="stroke: rgb(73%,79%,81%); stroke-linecap: butt; stroke-width: 1; fill: rgb(100%,100%,100%); fill-rule: evenodd;"/>
			<text x="175" y="134" style="font-family: Helvetica; font-size: 7px;fill: rgb(50%,50%,50%); stroke:none;" transform="translate(0,268) scale(1,-1)">13</text>
			<text x="203" y="115" style="font-family: Helvetica; font-size: 14px;fill: rgb(8%,21%,29%); stroke:none;" transform="translate(0,230) scale(1,-1)">1</text>
			<rect x="240" y="101" width="70" height="43" style="stroke: rgb(73%,79%,81%); stroke-linecap: butt; stroke-width: 1; fill: rgb(100%,100%,100%); fill-rule: evenodd;"/>
			<text x="245" y="134" style="font-family: Helvetica; font-size: 7px;fill: rgb(50%,50%,50%); stroke:none;" transform="translate(0,268) scale(1,-1)">15</text>
			<text x="273" y="115" style="font-family: Helvetica; font-size: 14px;fill: rgb(8%,21%,29%); stroke:none;" transform="translate(0,230) scale(1,-1)">1</text>
			<rect x="310" y="101" width="70" height="43" style="stroke: rgb(73%,79%,81%); stroke-linecap: butt; stroke-width: 1; fill: rgb(100%,100%,100%); fill-rule: evenodd;"/>
			<text x="315" y="134" style="font-family: Helvetica; font-size: 7px;fill: rgb(50%,50%,50%); stroke:none;" transform="translate(0,268) scale(1,-1)">14</text>
			<text x="343" y="115" style="font-family: Helvetica; font-size: 14px;fill: rgb(8%,21%,29%); stroke:none;" transform="translate(0,230) scale(1,-1)">0</text>
			<text x="65" y="74" style="font-family: Helvetica; font-size: 11px;fill: rgb(8%,21%,29%); stroke:none;" transform="translate(0,148) scale(1,-1)">10</text>
			<rect x="100" y="58" width="70" height="43" style="stroke: rgb(73%,79%,81%); stroke-linecap: butt; stroke-width: 1; fill: rgb(100%,100%,100%); fill-rule: evenodd;"/>
			<text x="105" y="91" style="font-family: Helvetica; font-size: 7px;fill: rgb(50%,50%,50%); stroke:none;" transform="translate(0,182) scale(1,-1)">8</text>
			<text x="133" y="72" style="font-family: Helvetica; font-size: 14px;fill: rgb(8%,21%,29%); stroke:none;" transform="translate(0,144) scale(1,-1)">0</text>
			<rect x="170" y="58" width="70" height="43" style="stroke: rgb(73%,79%,81%); stroke-linecap: butt; stroke-width: 1; fill: rgb(100%,100%,100%); fill-rule: evenodd;"/>
			<text x="175" y="91" style="font-family: Helvetica; font-size: 7px;fill: rgb(50%,50%,50%); stroke:none;" transform="translate(0,182) scale(1,-1)">9</text>
			<text x="203" y="72" style="font-family: Helvetica; font-size: 14px;fill: rgb(8%,21%,29%); stroke:none;" transform="translate(0,144) scale(1,-1)">0</text>
			<rect x="240" y="58" width="70" height="43" style="stroke: rgb(73%,79%,81%); stroke-linecap: butt; stroke-width: 1; fill: rgb(100%,100%,100%); fill-rule: evenodd;"/>
			<text x="245" y="91" style="font-family: Helvetica; font-size: 7px;fill: rgb(50%,50%,50%); stroke:none;" transform="translate(0,182) scale(1,-1)">11</text>
			<text x="273" y="72" style="font-family: Helvetica; font-size: 14px;fill: rgb(8%,21%,29%); stroke:none;" transform="translate(0,144) scale(1,-1)">1</text>
			<rect x="310" y="58" width="70" height="43" style="stroke: rgb(73%,79%,81%); stroke-linecap: butt; stroke-width: 1; fill: rgb(100%,100%,100%); fill-rule: evenodd;"/>
			<text x="315" y="91" style="font-family: Helvetica; font-size: 7px;fill: rgb(50%,50%,50%); stroke:none;" transform="translate(0,182) scale(1,-1)">10</text>
			<text x="343" y="72" style="font-family: Helvetica; font-size: 14px;fill: rgb(8%,21%,29%); stroke:none;" transform="translate(0,144) scale(1,-1)">0</text>
			<path d="M 173,227 L 237,227 Z" style="stroke: rgb(0%,49%,52%); stroke-linecap: butt; stroke-width: 2;"/>
			<path d="M 173,190 L 173,227 Z" style="stroke: rgb(0%,49%,52%); stroke-linecap: butt; stroke-width: 2;"/>
			<path d="M 243,227 L 307,227 Z" style="stroke: rgb(0%,49%,52%); stroke-linecap: butt; stroke-width: 2;"/>
			<path d="M 307,190 L 307,227 Z" style="stroke: rgb(0%,49%,52%); stroke-linecap: butt; stroke-width: 2;"/>
			<path d="M 243,147 L 307,147 Z" style="stroke: rgb(0%,49%,52%); stroke-linecap: butt; stroke-width: 2;"/>
			<path d="M 307,147 L 307,184 Z" style="stroke: rgb(0%,49%,52%); stroke-linecap: butt; stroke-width: 2;"/>
			<path d="M 173,147 L 237,147 Z" style="stroke: rgb(0%,49%,52%); stroke-linecap: butt; stroke-width: 2;"/>
			<path d="M 173,147 L 173,184 Z" style="stroke: rgb(0%,49%,52%); stroke-linecap: butt; stroke-width: 2;"/>
			<text x="20" y="27" style="font-family: Helvetica; font-size: 11px;fill: rgb(0%,49%,52%); stroke:none;" transform="translate(0,54) scale(1,-1)">G1: !ad</text>
			<path d="M 105,182 L 165,182 Z" style="stroke: rgb(67%,36%,7%); stroke-linecap: butt; stroke-width: 2;"/>
			<path d="M 105,149 L 105,182 Z" style="stroke: rgb(67%,36%,7%); stroke-linecap: butt; stroke-width: 2;"/>
			<path d="M 175,182 L 235,182 Z" style="stroke: rgb(67%,36%,7%); stroke-linecap: butt; stroke-width: 2;"/>
			<path d="M 235,149 L 235,182 Z" style="stroke: rgb(67%,36%,7%); stroke-linecap: butt; stroke-width: 2;"/>
			<path d="M 105,106 L 165,106 Z" style="stroke: rgb(67%,36%,7%); stroke-linecap: butt; stroke-width: 2;"/>
			<path d="M 105,106 L 105,139 Z" style="stroke: rgb(67%,36%,7%); stroke-linecap: butt; stroke-width: 2;"/>
			<path d="M 175,106 L 235,106 Z" style="stroke: rgb(67%,36%,7%); stroke-linecap: butt; stroke-width: 2;"/>
			<path d="M 235,106 L 235,139 Z" style="stroke: rgb(67%,36%,7%); stroke-linecap: butt; stroke-width: 2;"/>
			<text x="175" y="27" style="font-family: Helvetica; font-size: 11px;fill: rgb(67%,36%,7%); stroke:none;" transform="translate(0,54) scale(1,-1)">G2: b!c</text>
			<path d="M 247,223 L 303,223 Z" style="stroke: rgb(45%,32%,66%); stroke-linecap: butt; stroke-width: 2;"/>
			<path d="M 247,194 L 247,223 Z" style="stroke: rgb(45%,32%,66%); stroke-linecap: butt; stroke-width: 2;"/>
			<path d="M 303,194 L 303,223 Z" style="stroke: rgb(45%,32%,66%); stroke-linecap: butt; stroke-width: 2;"/>
			<path d="M 247,151 L 247,180 Z" style="stroke: rgb(45%,32%,66%); stroke-linecap: butt; stroke-width: 2;"/>
			<path d="M 303,151 L 303,180 Z" style="stroke: rgb(45%,32%,66%); stroke-linecap: butt; stroke-width: 2;"/>
			<path d="M 247,65 L 303,65 Z" style="stroke: rgb(45%,32%,66%); stroke-linecap: butt; stroke-width: 2;"/>
			<path d="M 247,65 L 247,94 Z" style="stroke: rgb(45%,32%,66%); stroke-linecap: butt; stroke-width: 2;"/>
			<path d="M 303,65 L 303,94 Z" style="stroke: rgb(45%,32%,66%); stroke-linecap: butt; stroke-width: 2;"/>
			<path d="M 247,108 L 247,137 Z" style="stroke: rgb(45%,32%,66%); stroke-linecap: butt; stroke-width: 2;"/>
			<path d="M 303,108 L 303,137 Z" style="stroke: rgb(45%,32%,66%); stroke-linecap: butt; stroke-width: 2;"/>
			<text x="330" y="27" style="font-family: Helvetica; font-size: 11px;fill: rgb(45%,32%,66%); stroke:none;" transform="translate(0,54) scale(1,-1)">G3: cd</text>
		</g>
	</g>
</svg>
